<?xml version="1.0" encoding="UTF-8" standalone="no"?>
<!-- Created with Inkscape (http://www.inkscape.org/) -->

<svg
   xmlns:dc="http://purl.org/dc/elements/1.1/"
   xmlns:cc="http://creativecommons.org/ns#"
   xmlns:rdf="http://www.w3.org/1999/02/22-rdf-syntax-ns#"
   xmlns:svg="http://www.w3.org/2000/svg"
   xmlns="http://www.w3.org/2000/svg"
   xmlns:sodipodi="http://sodipodi.sourceforge.net/DTD/sodipodi-0.dtd"
   xmlns:inkscape="http://www.inkscape.org/namespaces/inkscape"
   width="541.86664mm"
   height="129.77838mm"
   viewBox="0 0 1919.9999 459.84466"
   id="svg2"
   version="1.1"
   inkscape:version="0.91 r13725"
   sodipodi:docname="ttw-color.svg"
   inkscape:export-filename="/home/gary/Web/timetowrite/ttw.png"
   inkscape:export-xdpi="9.3800001"
   inkscape:export-ydpi="9.3800001">
  <defs
     id="defs4" />
  <sodipodi:namedview
     id="base"
     pagecolor="#ffffff"
     bordercolor="#666666"
     borderopacity="1.0"
     inkscape:pageopacity="0.0"
     inkscape:pageshadow="2"
     inkscape:zoom="4"
     inkscape:cx="1803.9132"
     inkscape:cy="385.16462"
     inkscape:document-units="px"
     inkscape:current-layer="layer1"
     showgrid="false"
     showguides="true"
     inkscape:window-width="1853"
     inkscape:window-height="1056"
     inkscape:window-x="67"
     inkscape:window-y="24"
     inkscape:window-maximized="1"
     fit-margin-top="0"
     fit-margin-left="0"
     fit-margin-right="0"
     fit-margin-bottom="0"
     gridtolerance="10">
    <inkscape:grid
       type="xygrid"
       id="grid4136"
       originx="1125.0008"
       originy="-825.00845" />
  </sodipodi:namedview>
  <metadata
     id="metadata7">
    <rdf:RDF>
      <cc:Work
         rdf:about="">
        <dc:format>image/svg+xml</dc:format>
        <dc:type
           rdf:resource="http://purl.org/dc/dcmitype/StillImage" />
        <dc:title></dc:title>
      </cc:Work>
    </rdf:RDF>
  </metadata>
  <g
     inkscape:label="Layer 1"
     inkscape:groupmode="layer"
     id="layer1"
     transform="translate(1125.0007,232.49086)"
     style="display:inline">
    <path
       style="color:#000000;clip-rule:nonzero;display:inline;overflow:visible;visibility:visible;opacity:1;isolation:auto;mix-blend-mode:normal;color-interpolation:sRGB;color-interpolation-filters:linearRGB;solid-color:#000000;solid-opacity:1;fill:#151515;fill-opacity:1;fill-rule:nonzero;stroke:none;stroke-width:3.90899992;stroke-linecap:butt;stroke-linejoin:miter;stroke-miterlimit:4;stroke-dasharray:none;stroke-dashoffset:0;stroke-opacity:1;color-rendering:auto;image-rendering:auto;shape-rendering:auto;text-rendering:auto;enable-background:accumulate"
       d="m -1125.0007,-232.49086 0,459.84465 1920,0 0.5,-459.78244 L 213.70335,61.961326 202.92774,43.37759 525.39731,-232.49086 Z"
       id="rect5504"
       inkscape:connector-curvature="0"
       sodipodi:nodetypes="cccccccc"
       inkscape:export-xdpi="9.3800001"
       inkscape:export-ydpi="9.3800001" />
  </g>
  <g
     inkscape:groupmode="layer"
     id="layer2"
     inkscape:label="Layer 2"
     transform="translate(1125.0007,232.49086)"
     style="display:inline;opacity:1">
    <g
       style="font-style:normal;font-weight:normal;font-size:88.7157135px;line-height:125%;font-family:sans-serif;letter-spacing:4.9286499px;word-spacing:0px;display:inline;fill:#ffffff;fill-opacity:1;stroke:none;stroke-width:1px;stroke-linecap:butt;stroke-linejoin:miter;stroke-opacity:1"
       id="text4138-9-5"
       transform="matrix(2.0448901,0,0,2.0448901,1175.5021,-237.55972)">
      <path
         d="m -1063.2923,155.72495 19.5174,0 q 2.3953,0 2.3953,1.77432 0,1.86303 -2.3953,1.86303 l -19.5174,0 0,23.68709 q 0,3.3712 2.6614,5.41166 2.6615,2.04046 7.2747,2.04046 3.7261,0 7.8957,-0.97587 4.2584,-1.06459 6.8311,-2.57276 0.8872,-0.53229 1.4195,-0.53229 0.621,0 1.1533,0.53229 0.5323,0.5323 0.5323,1.24202 0,1.95175 -6.0327,3.99221 -5.9439,1.95175 -11.6217,1.95175 -6.2989,0 -10.0249,-2.92762 -3.7261,-3.01634 -3.7261,-7.98442 l 0,-23.86452 -6.5649,0 q -2.4841,0 -2.4841,-1.86303 0,-1.77432 2.4841,-1.77432 l 6.5649,0 0,-10.55717 q 0,-2.39532 1.8631,-2.39532 1.7743,0 1.7743,2.39532 l 0,10.55717 z"
         style="font-style:normal;font-variant:normal;font-weight:500;font-stretch:normal;font-family:'Tlwg Typewriter';-inkscape-font-specification:'Tlwg Typewriter Medium';fill:#ffffff;fill-opacity:1"
         id="path5547"
         inkscape:connector-curvature="0" />
      <path
         d="m -993.281,155.72495 0,33.35711 14.19451,0 q 2.48404,0 2.48404,1.77432 0,1.86303 -2.48404,1.86303 l -32.02641,0 q -2.3953,0 -2.3953,-1.86303 0,-1.77432 2.3953,-1.77432 l 14.19455,0 0,-29.71976 -10.46845,0 q -2.3953,0 -2.3953,-1.86303 0,-1.77432 2.3953,-1.77432 l 14.1058,0 z m -0.17744,-18.36415 0,9.22644 -5.23422,0 0,-9.22644 5.23422,0 z"
         style="font-style:normal;font-variant:normal;font-weight:500;font-stretch:normal;font-family:'Tlwg Typewriter';-inkscape-font-specification:'Tlwg Typewriter Medium';fill:#ffffff;fill-opacity:1"
         id="path5549"
         inkscape:connector-curvature="0" />
      <path
         d="m -953.61045,155.72495 0,4.61322 q 2.21789,-3.19376 4.34707,-4.5245 2.12918,-1.33074 4.96808,-1.33074 5.67781,0 8.60543,6.29882 4.87936,-6.29882 10.02487,-6.29882 3.81478,0 6.56496,2.83891 2.75019,2.8389 2.75019,6.74239 l 0,25.01783 3.01634,0 q 2.39532,0 2.39532,1.77432 0,1.86303 -2.39532,1.86303 l -6.56497,0 0,-28.30032 q 0,-2.48404 -1.77431,-4.34707 -1.77432,-1.95174 -4.08092,-1.95174 -4.43579,0 -9.22644,7.27469 l 0,23.68709 3.01634,0 q 2.39532,0 2.39532,1.77432 0,1.86303 -2.39532,1.86303 l -6.56497,0 0,-28.03417 q 0,-2.57276 -1.77431,-4.5245 -1.6856,-2.04046 -3.99221,-2.04046 -4.43578,0 -9.31515,7.27469 l 0,23.68709 3.01634,0 q 2.39532,0 2.39532,1.77432 0,1.86303 -2.39532,1.86303 l -9.67002,0 q -2.30661,0 -2.30661,-1.86303 0,-1.77432 2.39533,-1.77432 l 3.01633,0 0,-29.71976 -3.01633,0 q -2.39533,0 -2.39533,-1.86303 0,-1.77432 2.39533,-1.77432 l 6.56496,0 z"
         style="font-style:normal;font-variant:normal;font-weight:500;font-stretch:normal;font-family:'Tlwg Typewriter';-inkscape-font-specification:'Tlwg Typewriter Medium';fill:#ffffff;fill-opacity:1"
         id="path5551"
         inkscape:connector-curvature="0" />
      <path
         d="m -859.29102,175.06498 -36.90573,0 q 0.97587,7.00854 5.85523,11.26689 4.87937,4.16964 12.06534,4.16964 4.16964,0 8.51671,-1.33073 4.34707,-1.33074 7.00854,-3.45992 0.88716,-0.62101 1.41945,-0.62101 0.70973,0 1.15331,0.5323 0.53229,0.53229 0.53229,1.24202 0,2.30661 -6.38753,4.79065 -6.29882,2.48404 -12.33148,2.48404 -8.96029,0 -15.25911,-6.03267 -6.2101,-6.03267 -6.2101,-14.63809 0,-8.07313 5.85524,-13.48479 5.85524,-5.50038 14.37195,-5.50038 6.38753,0 11.35561,3.19377 5.05679,3.19376 7.45212,8.69414 1.50816,3.54863 1.50816,8.69414 z m -36.90573,-3.63735 33.17967,0 q -1.06458,-6.03266 -5.58909,-9.67001 -4.5245,-3.63734 -11.00074,-3.63734 -6.47625,0 -10.91204,3.63734 -4.43578,3.54863 -5.6778,9.67001 z"
         style="font-style:normal;font-variant:normal;font-weight:500;font-stretch:normal;font-family:'Tlwg Typewriter';-inkscape-font-specification:'Tlwg Typewriter Medium';fill:#ffffff;fill-opacity:1"
         id="path5553"
         inkscape:connector-curvature="0" />
      <path
         d="m -772.67521,155.72495 19.51746,0 q 2.39532,0 2.39532,1.77432 0,1.86303 -2.39532,1.86303 l -19.51746,0 0,23.68709 q 0,3.3712 2.66147,5.41166 2.66147,2.04046 7.27469,2.04046 3.72606,0 7.8957,-0.97587 4.25835,-1.06459 6.83111,-2.57276 0.88716,-0.53229 1.41945,-0.53229 0.62101,0 1.15331,0.53229 0.53229,0.5323 0.53229,1.24202 0,1.95175 -6.03267,3.99221 -5.94395,1.95175 -11.62176,1.95175 -6.29881,0 -10.02487,-2.92762 -3.72606,-3.01634 -3.72606,-7.98442 l 0,-23.86452 -6.56496,0 q -2.48404,0 -2.48404,-1.86303 0,-1.77432 2.48404,-1.77432 l 6.56496,0 0,-10.55717 q 0,-2.39532 1.86303,-2.39532 1.77431,0 1.77431,2.39532 l 0,10.55717 z"
         style="font-style:normal;font-variant:normal;font-weight:500;font-stretch:normal;font-family:'Tlwg Typewriter';-inkscape-font-specification:'Tlwg Typewriter Medium';fill:#ffffff;fill-opacity:1"
         id="path5555"
         inkscape:connector-curvature="0" />
      <path
         d="m -704.4382,154.48293 q 8.51671,0 14.37194,5.85524 5.85524,5.76652 5.85524,14.19451 0,8.16185 -5.94395,13.92837 -5.94396,5.67781 -14.28323,5.67781 -8.428,0 -14.37195,-5.76652 -5.85524,-5.76653 -5.85524,-14.1058 0,-8.16185 5.85524,-13.92837 5.94395,-5.85524 14.37195,-5.85524 z m 0,3.63735 q -6.91983,0 -11.79919,4.70193 -4.79065,4.70193 -4.79065,11.44433 0,6.74239 4.79065,11.53304 4.87936,4.70193 11.79919,4.70193 6.83111,0 11.71047,-4.70193 4.87936,-4.70193 4.87936,-11.2669 0,-7.00854 -4.79064,-11.71047 -4.79065,-4.70193 -11.79919,-4.70193 z"
         style="font-style:normal;font-variant:normal;font-weight:500;font-stretch:normal;font-family:'Tlwg Typewriter';-inkscape-font-specification:'Tlwg Typewriter Medium';fill:#ffffff;fill-opacity:1"
         id="path5557"
         inkscape:connector-curvature="0" />
      <path
         d="m -575.68243,192.71941 -4.43579,0 -8.07313,-22.97737 -7.8957,22.97737 -4.5245,0 -7.45212,-33.35711 -1.6856,0 q -2.39532,0 -2.39532,-1.86303 0,-1.77432 2.39532,-1.77432 l 9.84745,0 q 2.39532,0 2.39532,1.77432 0,1.86303 -2.39532,1.86303 l -4.70193,0 6.38753,28.38903 7.62955,-22.62251 4.5245,0 7.8957,22.62251 6.12138,-28.38903 -4.43578,0 q -2.39533,0 -2.39533,-1.86303 0,-1.77432 2.39533,-1.77432 l 9.84744,0 q 2.39533,0 2.39533,1.77432 0,1.86303 -2.39533,1.86303 l -1.6856,0 -7.3634,33.35711 z"
         style="font-style:normal;font-variant:normal;font-weight:500;font-stretch:normal;font-family:'Tlwg Typewriter';-inkscape-font-specification:'Tlwg Typewriter Medium';fill:#ffffff;fill-opacity:1"
         id="path5559"
         inkscape:connector-curvature="0" />
      <path
         d="m -534.68112,155.72495 0,9.04901 q 6.12138,-5.58909 9.93616,-7.71827 3.81478,-2.21789 7.18597,-2.21789 3.54863,0 6.83111,2.75018 2.04046,1.6856 2.04046,2.75019 0,0.79844 -0.53229,1.33074 -0.53229,0.53229 -1.33074,0.53229 -0.70972,0 -1.41945,-0.70973 -3.10505,-3.01633 -5.85523,-3.01633 -3.01634,0 -6.29882,2.12918 -3.19377,2.12917 -10.55717,8.87157 l 0,19.60617 15.88011,0 q 2.39533,0 2.39533,1.86303 0,1.77432 -2.39533,1.77432 l -28.03416,0 q -2.39533,0 -2.39533,-1.86303 0,-1.77432 2.39533,-1.77432 l 8.51671,0 0,-29.71976 -6.65368,0 q -2.39533,0 -2.39533,-1.86303 0,-1.77432 2.39533,-1.77432 l 10.29102,0 z"
         style="font-style:normal;font-variant:normal;font-weight:500;font-stretch:normal;font-family:'Tlwg Typewriter';-inkscape-font-specification:'Tlwg Typewriter Medium';fill:#ffffff;fill-opacity:1"
         id="path5561"
         inkscape:connector-curvature="0" />
      <path
         d="m -470.17018,155.72495 0,33.35711 14.19452,0 q 2.48404,0 2.48404,1.77432 0,1.86303 -2.48404,1.86303 l -32.02637,0 q -2.39533,0 -2.39533,-1.86303 0,-1.77432 2.39533,-1.77432 l 14.19451,0 0,-29.71976 -10.46845,0 q -2.39533,0 -2.39533,-1.86303 0,-1.77432 2.39533,-1.77432 l 14.10579,0 z m -0.17743,-18.36415 0,9.22644 -5.23422,0 0,-9.22644 5.23422,0 z"
         style="font-style:normal;font-variant:normal;font-weight:500;font-stretch:normal;font-family:'Tlwg Typewriter';-inkscape-font-specification:'Tlwg Typewriter Medium';fill:#ffffff;fill-opacity:1"
         id="path5563"
         inkscape:connector-curvature="0" />
      <path
         d="m -423.93467,155.72495 19.51746,0 q 2.39532,0 2.39532,1.77432 0,1.86303 -2.39532,1.86303 l -19.51746,0 0,23.68709 q 0,3.3712 2.66147,5.41166 2.66147,2.04046 7.27469,2.04046 3.72606,0 7.8957,-0.97587 4.25835,-1.06459 6.83111,-2.57276 0.88716,-0.53229 1.41945,-0.53229 0.62101,0 1.15331,0.53229 0.53229,0.5323 0.53229,1.24202 0,1.95175 -6.03267,3.99221 -5.94395,1.95175 -11.62176,1.95175 -6.29881,0 -10.02487,-2.92762 -3.72606,-3.01634 -3.72606,-7.98442 l 0,-23.86452 -6.56497,0 q -2.48404,0 -2.48404,-1.86303 0,-1.77432 2.48404,-1.77432 l 6.56497,0 0,-10.55717 q 0,-2.39532 1.86303,-2.39532 1.77431,0 1.77431,2.39532 l 0,10.55717 z"
         style="font-style:normal;font-variant:normal;font-weight:500;font-stretch:normal;font-family:'Tlwg Typewriter';-inkscape-font-specification:'Tlwg Typewriter Medium';fill:#ffffff;fill-opacity:1"
         id="path5565"
         inkscape:connector-curvature="0" />
      <path
         d="m -336.18021,175.06498 -36.90573,0 q 0.97587,7.00854 5.85523,11.26689 4.87937,4.16964 12.06534,4.16964 4.16964,0 8.51671,-1.33073 4.34707,-1.33074 7.00854,-3.45992 0.88716,-0.62101 1.41945,-0.62101 0.70973,0 1.15331,0.5323 0.53229,0.53229 0.53229,1.24202 0,2.30661 -6.38753,4.79065 -6.29882,2.48404 -12.33149,2.48404 -8.96028,0 -15.2591,-6.03267 -6.2101,-6.03267 -6.2101,-14.63809 0,-8.07313 5.85524,-13.48479 5.85524,-5.50038 14.37194,-5.50038 6.38754,0 11.35562,3.19377 5.05679,3.19376 7.45212,8.69414 1.50816,3.54863 1.50816,8.69414 z m -36.90573,-3.63735 33.17967,0 q -1.06459,-6.03266 -5.58909,-9.67001 -4.5245,-3.63734 -11.00075,-3.63734 -6.47624,0 -10.91203,3.63734 -4.43578,3.54863 -5.6778,9.67001 z"
         style="font-style:normal;font-variant:normal;font-weight:500;font-stretch:normal;font-family:'Tlwg Typewriter';-inkscape-font-specification:'Tlwg Typewriter Medium';fill:#ffffff;fill-opacity:1"
         id="path5567"
         inkscape:connector-curvature="0" />
      <path
         d="m -298.01783,182.42838 0.88716,0 q 2.57275,0 4.34707,1.6856 1.77431,1.59688 1.77431,4.08092 0,2.48404 -1.77431,4.16964 -1.77432,1.6856 -4.34707,1.6856 l -0.88716,0 q -2.57276,0 -4.34707,-1.6856 -1.77431,-1.6856 -1.77431,-4.16964 0,-2.48404 1.77431,-4.08092 1.77431,-1.6856 4.34707,-1.6856 z"
         style="font-style:normal;font-variant:normal;font-weight:500;font-stretch:normal;font-family:'Tlwg Typewriter';-inkscape-font-specification:'Tlwg Typewriter Medium';fill:#ffffff;fill-opacity:1"
         id="path5569"
         inkscape:connector-curvature="0" />
    </g>
    <text
       xml:space="preserve"
       style="font-style:normal;font-weight:normal;font-size:180px;line-height:125%;font-family:sans-serif;letter-spacing:10px;word-spacing:0px;fill:#000000;fill-opacity:1;stroke:none;stroke-width:1px;stroke-linecap:butt;stroke-linejoin:miter;stroke-opacity:1"
       x="-749.99988"
       y="302.36224"
       id="text5571"
       sodipodi:linespacing="125%"><tspan
         sodipodi:role="line"
         id="tspan5573"
         x="-749.99988"
         y="302.36224" /></text>
  </g>
</svg>
